<svg xmlns="http://www.w3.org/2000/svg" fill="#fff" version="1.1" xlink="http://www.w3.org/1999/xlink" xmlns:svgjs="http://svgjs.com/svgjs" width="100%" height="100%" preserveAspectRatio="xMidYMid meet" viewBox="0.000004346422883827472 -3.4077180544045405e-7 126.90413665771484 146.99996948242188" overflow="visible"><defs id="SvgjsDefs24245"></defs><g id="SvgjsG24246" transform="scale(0.515970515970516)" opacity="1"><g id="SvgjsG24247" class="MEU964DDS" transform="translate(275.3177209594846, -9.89305934315078) scale(-3.0468307185558303 3.0468307185558303)" light-content="false" non-strokable="false" fill="#324249"><path d="M36.703 11.011L9.638 26.636v12.121l27.065-15.626 27.064 15.626V26.636zm26.595 78.081L36.233 73.467V61.348l27.065 15.625 27.064-15.625v12.119z"></path><path d="M9.638 42.012l27.065-15.626 10.495 6.06-27.064 15.626v31.252l-10.496-6.06zm67.445-23.14L50.018 3.247l-10.496 6.06 27.064 15.625v31.252l10.497-6.06z"></path><path d="M23.01 81.127l.001-31.251 10.496-6.06v31.252l27.064 15.625-10.496 6.061zm67.352-23.035V26.84l-10.496-6.06v31.251L52.802 67.658l10.496 6.061z"></path></g></g></svg>